<svg id="Layer_1" data-name="Layer 1" xmlns="http://www.w3.org/2000/svg" xmlns:xlink="http://www.w3.org/1999/xlink" viewBox="0 0 300 300"><defs><linearGradient id="linear-gradient" x1="158.71" y1="-248.54" x2="162.44" y2="-522.63" gradientTransform="matrix(1, 0.02, 0.02, -1, -0.27, -233.01)" gradientUnits="userSpaceOnUse"><stop offset="0" stop-color="#12b8c4"/><stop offset="0.45" stop-color="#11b2c6"/><stop offset="0.82" stop-color="#003fe9"/></linearGradient><linearGradient id="linear-gradient-2" x1="111.12" y1="112.86" x2="113.22" y2="-42.76" gradientUnits="userSpaceOnUse"><stop offset="0.29" stop-color="#12b8c4"/><stop offset="0.57" stop-color="#003fe9"/></linearGradient><linearGradient id="linear-gradient-3" x1="212.37" y1="98.01" x2="214.6" y2="-17.15" gradientUnits="userSpaceOnUse"><stop offset="0.29" stop-color="#12b8c4"/><stop offset="0.54" stop-color="#003fe9"/></linearGradient><linearGradient id="linear-gradient-4" x1="153.16" y1="226.2" x2="153.16" y2="18.71" gradientTransform="matrix(1, 0, 0, -1, 0, 300)" gradientUnits="userSpaceOnUse"><stop offset="0.28" stop-color="#12b8c4"/><stop offset="0.97" stop-color="#003fe9"/></linearGradient><linearGradient id="linear-gradient-5" x1="164.35" y1="165.04" x2="164.35" y2="67.11" gradientTransform="matrix(1, 0, 0, -1, 0, 300)" gradientUnits="userSpaceOnUse"><stop offset="0.93" stop-color="#12b8c4"/><stop offset="0.97" stop-color="#003fe9"/></linearGradient><linearGradient id="linear-gradient-6" x1="74.03" y1="6.16" x2="118.03" y2="-58.64" gradientTransform="matrix(1, -0.06, -0.06, -1, -3.29, 75.13)" gradientUnits="userSpaceOnUse"><stop offset="0.69" stop-color="#12b8c4"/><stop offset="1" stop-color="#e90050"/></linearGradient><linearGradient id="linear-gradient-7" x1="177.35" y1="-2.94" x2="216.9" y2="-61.19" xlink:href="#linear-gradient-6"/><radialGradient id="radial-gradient" cx="196.73" cy="274.64" r="420.67" gradientTransform="matrix(0.9, -0.06, 0.02, 0.46, 1.97, 159.68)" gradientUnits="userSpaceOnUse"><stop offset="0.02" stop-color="#4a0050"/><stop offset="0.16" stop-color="#bf0050"/><stop offset="0.16" stop-color="#c20050"/><stop offset="0.16" stop-color="#d30050"/><stop offset="0.16" stop-color="#e00050"/><stop offset="0.16" stop-color="#e70050"/><stop offset="0.16" stop-color="#e90050"/><stop offset="0.21" stop-color="#ea0250"/><stop offset="0.24" stop-color="#ec0950"/><stop offset="0.25" stop-color="#f11450"/><stop offset="0.26" stop-color="#f72550"/><stop offset="0.27" stop-color="#ff3a50"/></radialGradient><radialGradient id="radial-gradient-2" cx="118.15" cy="63.09" r="335.74" gradientTransform="matrix(0.89, -0.15, -0.08, -0.61, 14.9, 294.02)" gradientUnits="userSpaceOnUse"><stop offset="0.1" stop-color="#4a0050"/><stop offset="0.16" stop-color="#bf0050"/><stop offset="0.16" stop-color="#c20050"/><stop offset="0.16" stop-color="#d30050"/><stop offset="0.16" stop-color="#e00050"/><stop offset="0.16" stop-color="#e70050"/><stop offset="0.16" stop-color="#e90050"/><stop offset="0.19" stop-color="#e70050"/><stop offset="0.2" stop-color="#df0050"/><stop offset="0.21" stop-color="#d10050"/><stop offset="0.22" stop-color="#be0050"/><stop offset="0.23" stop-color="#a60050"/><stop offset="0.24" stop-color="#880050"/><stop offset="0.25" stop-color="#790050"/></radialGradient><radialGradient id="radial-gradient-3" cx="142.92" cy="286.26" r="428.87" gradientTransform="matrix(0.9, -0.07, 0.03, 0.55, -1.14, 139.39)" gradientUnits="userSpaceOnUse"><stop offset="0.02" stop-color="#4a0050"/><stop offset="0.16" stop-color="#bf0050"/><stop offset="0.16" stop-color="#c20050"/><stop offset="0.16" stop-color="#d30050"/><stop offset="0.16" stop-color="#e00050"/><stop offset="0.16" stop-color="#e70050"/><stop offset="0.16" stop-color="#e90050"/><stop offset="0.21" stop-color="#ea0250"/><stop offset="0.23" stop-color="#ec0950"/><stop offset="0.25" stop-color="#f11550"/><stop offset="0.26" stop-color="#f82750"/><stop offset="0.27" stop-color="#ff3a50"/><stop offset="0.39" stop-color="#ff3a50"/></radialGradient></defs><g id="face"><g id="Layer_1-2" data-name="Layer 1-2"><g id="head"><path d="M249.71,142.76a30.29,30.29,0,0,0,0-6.82c0-.22-.18-1.24-.42-2.66-.1-.57-.21-1.29-.31-2.27-.17-1.55-.26-3-.32-4.35a5.4,5.4,0,0,1-6.38-1.44,4.19,4.19,0,0,1-2.91-4,22.76,22.76,0,0,1,3.34-10.9,8.64,8.64,0,0,1-.82-.39c-4.85-2.73-5.27-8-8.56-11.82-4.77-5.53-16.22-5.92-22.82-6.23a243.27,243.27,0,0,0-26.73-.26c-9.39.6-17.68,3.85-26.71,6.09a72.4,72.4,0,0,1-23.92,1.74,5.14,5.14,0,0,1-4.7-4.4c-1.17.27-2.34.52-3.51.73-18,3.28-36.26,2.57-54.43,2.88a2.74,2.74,0,0,0,0,.28c-.4,2.66-2.72,3.74-5,3.55a21.34,21.34,0,0,1-4,2.88A7.25,7.25,0,0,1,57,110a52.51,52.51,0,0,1,0,6.87V117a3.22,3.22,0,0,1,0,.43c-.16,1.24-.51,4.33-.6,5.2a101.07,101.07,0,0,0-2.86,13.9,105.39,105.39,0,0,0-.26,24.63c3.11,25.41,18.87,44.16,22.37,48.17a103.4,103.4,0,0,0,33.83,24.83,108.44,108.44,0,0,0,54.25,9.53c8.88-.77,41.44-3.91,66.68-30.07,19.41-20.12,29.22-48.37,24.13-57.41C253.7,155,249.2,147.89,249.71,142.76Z" style="fill:url(#linear-gradient)"/><path d="M189.22,102.71c1.86,8.19-61.38,45.8-110.85,25.15-21.59-9-36.6-24.49-40.53-33.78A59.71,59.71,0,0,1,34.3,81.94a57.52,57.52,0,0,1-.24-15.59,83.09,83.09,0,0,1,1.43-8.84c.65-3.1,1.37-5.73,2-7.77a101.27,101.27,0,0,1,24.72.47A97.4,97.4,0,0,1,82.5,55.34a93.06,93.06,0,0,1,19.79,10.32c-18.6,3.56-22.53,6.75-22.58,9C79.52,83,129.92,95,171.06,99.43,184.4,100.88,188.76,100.67,189.22,102.71Z" style="fill:url(#linear-gradient-2)"/><path d="M255.33,48.43a161.46,161.46,0,0,0-19.11,3.71c-4.83,1.24-8.52,2.44-10.11,3-5.59,1.85-9.78,3.62-16.37,6.36-3.63,1.52-6.68,2.85-9,3.87.1.5,1.4,8-1.47,9.44a2.35,2.35,0,0,1-.79.22,5.06,5.06,0,0,1,0,7.06c-7.75,7.28-21.38,5-31,4.36-4-.27-8.1-.38-12.16-.39,1.67.21,2.62.31,2.62.31,9.7,1.2,16.37,1.87,20,7.16a13.58,13.58,0,0,1,2.21,5.78c2.12.86,5.2,2.07,9,3.44,2.8,1,5.35,1.88,6.43,2.23a73,73,0,0,0,18.21,3A155.21,155.21,0,0,0,245,106.43h0l3.21-1.42,1.29-.57h0q2.65-6.75,5.27-13.6,8.45-22.17,15.78-43.73C264.71,47.35,259.57,47.86,255.33,48.43Z" style="fill:url(#linear-gradient-3)"/><path d="M91.5,67.2A92.61,92.61,0,0,0,82.13,71C68.36,77.58,56.4,88,52.38,95.76c-9.23,17.79,9.87,48,33.57,60.45,57.85,30.52,172.22-28.83,167.89-61C250.7,71.89,184.53,57.4,151.67,57.69,132.88,57.86,109.37,60.92,91.5,67.2Z" style="fill:#12b8c4"/><path d="M244.33,181.66c-1.66,3-4.8,7.9-11.68,14.07C209,216.91,177.52,220.5,170,221.21c-1.65.16-2.81.24-3.85.3-24.19,1.58-58.1,3.8-82.11-17.29-18.29-16.07-22.56-38.39-23.55-44a79.84,79.84,0,0,1,.3-29.21c1-.72,2.07-1.57,1.9-1.94S62,128.88,61,129c-1.15.11-2.62.26-4.34.47v0h0l.66-.19c88.94-25.64,176.27-18.2,184.3,3.26A154.54,154.54,0,0,1,247.53,151c1.5,6.22,2.25,9.42,2.08,13.61A37.69,37.69,0,0,1,244.33,181.66Z" style="fill:url(#linear-gradient-4)"/><path d="M223.74,190.23c-20.85,22.53-53.33,23.44-58.24,23.5-7.26.08-36.14.41-56.24-19.44-3-2.93-21.64-22-15.08-38.81,3.29-8.44,11.36-12.79,17.19-15.52,23.16-10.88,86.7-40.71,113.17-12.06,8.78,9.5,13,24.93,10.79,38.63A46.33,46.33,0,0,1,223.74,190.23Z" style="fill:url(#linear-gradient-5)"/><g id="ears"><path d="M270.57,47.11a121,121,0,0,0-15.84,5.19c-10.15,4.13-16.25,6.51-21.48,12.13-2.56,2.74-7.31,8.83-9,19.58,15-9,20.42-8.58,22.62-6.63,3.46,3.06-.38,10.62-.93,21.73-.68,13.49,3.85,24.63,7.74,31.9-5.1-14.5-3.34-23.1-.73-28.3,1.52-3,2.91-4,6.18-10.32a70.23,70.23,0,0,0,6.65-16.5c1.25-5.08.78-6.22,2.08-14.76C268.78,55.05,269.84,50.18,270.57,47.11Z" style="fill:#262626"/><path d="M59.41,127c.25-2.25-1.23-3.74-2.66-7.28A24.57,24.57,0,0,1,55,111.17c-6.61-17.49-6.47-24.39-3.71-26.33,0,0,3-2.12,26.87,11.53,2.51,1.71,3.48,1.63,3.91,1.31,2.06-1.5-2.87-12.25-7.69-19.76a77.24,77.24,0,0,0-9.67-12.07c-4.78-5-8-8.37-13.27-11.33a41.73,41.73,0,0,0-14-4.78c-.56,1.9-1.29,4.55-2,7.77a70.35,70.35,0,0,0-1.94,13.93A73.37,73.37,0,0,0,35,86a55,55,0,0,0,1.42,5.52c.06.2.12.35.15.45a55.47,55.47,0,0,0,4.42,9.5c1.31,2.44,2.53,4.49,3.39,5.93,1,1.66,1.86,3,2.51,4.06,1.83,2.89,2.15,3.34,2.78,4.53h0s1,2.09,1.9,4.48A73.13,73.13,0,0,1,54.24,132C58.14,130.17,59.26,128.39,59.41,127Z" style="fill:#262626"/><g id="wiskers"><path d="M96.36,165.37c-1.15.2-2.3.39-3.35.49a5.17,5.17,0,0,1-.73.77c-.52.48-1,.87-1.57,1.35,15.17-2.32,42.05-5.4,66.43-3.76C158.18,164.12,134.75,159.39,96.36,165.37Z" style="fill:#262626"/><path d="M124.5,177.82s2.4,12.45,41.11-6.95c7.53-3,32-.38,26.47,2.61-2.51-.77-4.08-.87-4.5-.19-1.15,1.15,1.15,4.92,6.69,11.29a28.75,28.75,0,0,0-11.5-6.08C163.83,171.65,131.82,194.71,124.5,177.82Z" style="fill:#262626"/><path d="M113.2,178.21c-4.39,1.54,34.1-7.24,41.53-10.71C157.14,166.05,117.7,176.57,113.2,178.21Z" style="fill:#262626"/><path d="M125.13,169.43c-3.14.77,23.22-2.13,28.66-3.86C155.57,164.8,128.26,168.75,125.13,169.43Z" style="fill:#262626"/><path d="M228.9,165.47c4.18.87-30.76-1.93-37.87-4C188.73,160.45,224.71,164.6,228.9,165.47Z" style="fill:#262626"/><path d="M186.32,151.87l-8.26,5.5-5.44,5.69a43.22,43.22,0,0,0-6.28-5.79c-4.08-3-7-4.05-6.69-5s3.87-1.06,9.83-1C173.46,151.29,181.82,151.67,186.32,151.87Z" style="fill:#262626"/><path d="M192.81,166.44c7.43,3.66,45.61,13.5,41.11,11.86S190.61,164.89,192.81,166.44Z" style="fill:#262626"/><path d="M194,164.41c5.23,1.93,31.59,5.4,28.56,4.63C219.17,168.27,192.28,163.64,194,164.41Z" style="fill:#262626"/></g></g></g><g id="glasses"><path d="M144.58,149a49.67,49.67,0,0,0,9.2-8.5,27.24,27.24,0,0,0,5.4-9.5c1.4-4.1.7-5.6,2-7.3,2.4-2.9,9.3-3.4,13.8-1,7,3.7,3.3,11.7,9.2,19.1,6.8,8.5,20.3,8.7,34.4,8.9,11,.1,20.9.3,27.8-6.5a22.83,22.83,0,0,0,6.1-12.3c-7.9-4.5-41.8-21.3-50.2-24.2-2.6-.7-80.6-1.8-80.6-1.8-5.1.3-10.2.8-15.3,1.2-8.3.8-16.5,1.5-24.5,2.3a48.29,48.29,0,0,0-4,20.2c.1,8.5-.2,15.6,4.9,20.7,5.8,5.9,15,5.6,31.2,5.3C119.58,155.46,135.88,155.06,144.58,149Z" style="fill:#262626"/><path d="M253.58,105.56c.8,2.9.7,9.3.8,12.2a58.24,58.24,0,0,1-.3,7.7c-.5,7.3-.8,11-1.7,13.3-.8,1.8-3.4,6.9-12.8,10-1.6-1.1-3.1-2.2-4.6-3.3l-6.1-5.2-52.5-32.6c-18.6,1.8-48.2,5.1-65.5,7.3-16.5,3.8-18.2,12.4-32.9,14.6a51.13,51.13,0,0,1-6.29.41l-2.29.12c-.6,0-2.32.16-5,.47-4.25.49-8.91,1.23-10.14,1.43a65.3,65.3,0,0,0-2-8c-1.28-4-2.74-6.36-3.49-8.76a9.07,9.07,0,0,0-.94-2.24c-.37-.55-.53-.81-.86-1.32-.09-.15-.14-.22-.14-.23-.32-1.5,35.84-10,35.84-10,9-2,11.39-2.84,18.57-4A193,193,0,0,1,121,95.36c3.31-.19,9.57-.63,29.2.2l19.2.8c14.8,1,30.5-3.1,47.9-3.7C231.58,92.36,251,96.56,253.58,105.56Z" style="fill:#262626"/><path id="glasses-2" data-name="glasses" d="M143,102.13a75.87,75.87,0,0,0-23.53-1.38c-11.27,1.1-20.93,2-27,9.6-6.6,8.15-5.24,19.2-4.34,26.33.76,6,1.19,9.38,3.69,10.79,6.7,3.77,21.27-10.42,28.93-17.87A153.77,153.77,0,0,0,143,102.13Z" style="fill:url(#linear-gradient-6)"/><path id="glasses-3" data-name="glasses" d="M239.32,100.83a68.27,68.27,0,0,0-21.15-1.24c-10.13,1-18.81,1.85-24.32,8.63-5.93,7.32-4.71,17.25-3.9,23.67.69,5.39,1.07,8.42,3.32,9.69,6,3.39,19.12-9.36,26-16.06A137.7,137.7,0,0,0,239.32,100.83Z" style="fill:url(#linear-gradient-7)"/></g></g></g><g id="fly"><path id="right" d="M168.2,227.42l.3,3.07a11.85,11.85,0,0,0,.83,3,18,18,0,0,0,1.28,3,10.11,10.11,0,0,0,1.8,2.77,26.64,26.64,0,0,0,4.84,5.1,30.15,30.15,0,0,0,6.37,4,75.68,75.68,0,0,0,11.25,4.37c1.27.3,2.65.68,3.92.91l1,.24c2.27.31,4.55.86,6.81,1.16,2.82.51,5.62.77,8.51,1,1.62,0,3.24.06,4.94,0a17.85,17.85,0,0,0,6.19-1.3,15.15,15.15,0,0,0,3.3-1.71,8,8,0,0,0,3.27-4.72,6.86,6.86,0,0,0,.23-1.94,21.47,21.47,0,0,0-.23-3.41A11.66,11.66,0,0,0,232,240a10.08,10.08,0,0,0-.45-1.39,1.86,1.86,0,0,0-.22-.65c-.11-.32-.35-1.14-.46-1.46a1.75,1.75,0,0,1-.23-.74l-.72-1.35a40.35,40.35,0,0,0-8.3-11.24,16.1,16.1,0,0,0-1.34-1.22l-.24-.18c1.1-1.38,2-2.92,3-4.25a88.11,88.11,0,0,0,6.09-10.91c.86-1.91,1.44-4,2.11-6a19.07,19.07,0,0,0,.5-3.23l-.3-3.07c0-.16,0-.33-.11-.4l-.12-.41-.32-.73,0-.25-.22-.56v-.09l-.1-.16-.2-.23-.4-.63a8.85,8.85,0,0,0-1-.92l-.37-.21-.38-.31-.37-.21a5.82,5.82,0,0,1-.94-.51,5,5,0,0,0-1-.33c-.18-.06-.64-.19-.91-.25l-.45,0-.28-.06L224,188l-1-.08c-.63,0-1.26,0-1.89,0a26.93,26.93,0,0,0-5.77.92,21.27,21.27,0,0,0-4.49,1.4c-2.63.9-5.15,2.12-7.68,3.26a210.76,210.76,0,0,0-19.8,11.11l-3.1,2-.34.2a9.82,9.82,0,0,1-.86.58l-.18.1-.16.18a6.18,6.18,0,0,0-.86.66L177,209a28.52,28.52,0,0,0-3.62,3.58l-.66.81-.57.8a2.78,2.78,0,0,1-.58.81,23.73,23.73,0,0,0-1.75,3.25l-.31.86c-.07.26-.13.6-.21.86a.6.6,0,0,1-.15.34l-.07.34a.56.56,0,0,1-.16.35l-.06.34c-.21.94-.32,2-.52,3S168.22,226.41,168.2,227.42Z" style="fill:url(#radial-gradient)"/><path id="middle" d="M185.48,241.18c-1,6.25-5.1,8.81-11.88,9.5-10.86,1.21-13.56,1.49-24.83-2.29a12.09,12.09,0,0,0,.87-1.55,13.8,13.8,0,0,0,1.05-2.17c.09-.31.47-1.24.56-1.54l.19-.42a40.07,40.07,0,0,0,1.91-8.51v-4.29a33.79,33.79,0,0,0-1.48-8.22l-.11-.4-.1-.2-.11-.31-.11-.5-.11-.31-.1-.2c-.21-.5-.64-1.71-.85-2.22a22.35,22.35,0,0,0-2.59-4.21,3.8,3.8,0,0,0-.82-1l-.82-1-.21-.3c2.18-1,6.05-2,12.63-2.39,9.19-.35,13.59,0,16.43,1.8C181.27,213.76,187.23,234.4,185.48,241.18Z" style="fill:url(#radial-gradient-2)"/><path id="left" d="M156.18,226.37c-.33-1.21-.55-2.43-.88-3.55l-.11-.4a.86.86,0,0,1-.21-.4l-.11-.41a.76.76,0,0,1-.2-.4c-.11-.3-.22-.71-.33-1l-.42-1a28.42,28.42,0,0,0-2.28-3.71,3.36,3.36,0,0,1-.72-.9l-.72-.9-.82-.89a31.4,31.4,0,0,0-4.38-3.86l-1-.69a6.39,6.39,0,0,0-1-.68l-.21-.2-.2-.1a9.06,9.06,0,0,1-1-.58l-.41-.2-3.64-2a215.62,215.62,0,0,0-23.11-10.79,90,90,0,0,0-8.86-2.93,22.34,22.34,0,0,0-5.12-1.08,28.14,28.14,0,0,0-6.5-.34c-.7.13-1.4.14-2.09.27l-1.1.23-.19.11-.3.11-.5.11a9.6,9.6,0,0,0-1,.44,5,5,0,0,0-1.08.54,7.07,7.07,0,0,1-1,.74l-.39.31-.39.42-.39.32a10.8,10.8,0,0,0-1.07,1.25l-.39.83-.19.31-.09.2v.11l-.19.71v.31l-.28.93-.09.51a.79.79,0,0,0-.08.51l0,3.77a24.56,24.56,0,0,0,.88,3.85c1,2.32,1.81,4.75,3,7a109.24,109.24,0,0,0,7.87,12.43c1.19,1.49,2.39,3.23,3.75,4.75l-.24.26A19.85,19.85,0,0,0,97,232.25a51.78,51.78,0,0,0-8.07,14.81l-.66,1.75a2.55,2.55,0,0,1-.18.92c-.09.41-.27,1.43-.36,1.84a2.75,2.75,0,0,0-.18.83,13.53,13.53,0,0,0-.36,1.74,15.83,15.83,0,0,0-.62,3.69,29,29,0,0,0,.09,4.17,9.6,9.6,0,0,0,.46,2.34,9.35,9.35,0,0,0,4.11,5.29A16,16,0,0,0,95,271.26a18.11,18.11,0,0,0,7,.73c1.89-.15,3.69-.41,5.48-.66,3.18-.7,6.26-1.39,9.34-2.39,2.48-.68,5-1.67,7.44-2.35l1.09-.43c1.39-.45,2.87-1.1,4.26-1.65a82.54,82.54,0,0,0,12-6.85,35.28,35.28,0,0,0,6.67-5.69,33.23,33.23,0,0,0,4.85-6.86,13.09,13.09,0,0,0,1.71-3.61,22.93,22.93,0,0,0,1.12-3.81,15.8,15.8,0,0,0,.61-3.79l0-3.77C156.53,228.91,156.4,227.59,156.18,226.37Z" style="fill:url(#radial-gradient-3)"/></g></svg>