<svg width="225.13125px" height="144px" xmlns="http://www.w3.org/2000/svg" viewBox="187.434375 53 125.13125 44" style="background: none;" preserveAspectRatio="xMidYMid"><defs><linearGradient id="editing-glowing-gradient" x1="0.00007615242180436521" x2="0.9999238475781956" y1="0.49127379678135824" y2="0.5087262032186417"><stop offset="0" stop-color="#7be8a7"></stop><stop offset="1" stop-color="#009daf"></stop></linearGradient><filter id="editing-glowing" x="-100%" y="-100%" width="300%" height="300%"><feGaussianBlur in="SourceGraphic" result="blur" stdDeviation="5"></feGaussianBlur><feMerge><feMergeNode in="blur"></feMergeNode><feMergeNode in="SourceGraphic"></feMergeNode></feMerge></filter></defs><g filter="url(#editing-glowing)"><g transform="translate(211.17001247406006, 82.32499742507935)"><path d="M2.93-9.74L2.93-1.32L6.15-1.32L6.15-1.32Q7.25-1.32 7.25-2.56L7.25-2.56L7.25-8.50L7.25-8.50Q7.25-9.74 6.15-9.74L6.15-9.74L2.93-9.74ZM6.15 0L1.46 0L1.46-10.69L2.24-11.06L6.15-11.06L6.15-11.06Q8.72-11.06 8.72-8.50L8.72-8.50L8.72-2.56L8.72-2.56Q8.72 0 6.15 0L6.15 0ZM11.76-9.68L11.76-9.68L11.76-9.68Q11.50-9.94 11.50-10.31L11.50-10.31L11.50-10.31Q11.50-10.68 11.76-10.94L11.76-10.94L11.76-10.94Q12.01-11.21 12.38-11.21L12.38-11.21L12.38-11.21Q12.74-11.21 13.00-10.94L13.00-10.94L13.00-10.94Q13.26-10.68 13.26-10.31L13.26-10.31L13.26-10.31Q13.26-9.94 13.00-9.68L13.00-9.68L13.00-9.68Q12.74-9.41 12.38-9.41L12.38-9.41L12.38-9.41Q12.01-9.41 11.76-9.68ZM11.72 0.29L11.65 0.29L11.65-7.69L13.04-8.35L13.11-8.35L13.11-0.37L11.72 0.29ZM19.56 0L17.87 0L17.87 0Q15.67 0 15.67-2.20L15.67-2.20L15.67-5.86L15.67-5.86Q15.67-8.06 17.87-8.06L17.87-8.06L19.56-8.06L19.56-8.06Q21.75-8.06 21.75-5.86L21.75-5.86L21.75 0.81L21.75 0.81Q21.75 3.00 19.56 3.00L19.56 3.00L16.44 3.00L16.44 2.93L17.02 1.68L19.56 1.68L19.56 1.68Q20.29 1.68 20.29 0.81L20.29 0.81L20.29-0.22L20.29-0.22Q19.98 0 19.56 0L19.56 0ZM17.87-1.32L17.87-1.32L19.56-1.32L19.56-1.32Q20.29-1.32 20.29-2.20L20.29-2.20L20.29-5.86L20.29-5.86Q20.29-6.74 19.56-6.74L19.56-6.74L17.87-6.74L17.87-6.74Q17.14-6.74 17.14-5.86L17.14-5.86L17.14-2.20L17.14-2.20Q17.14-1.32 17.87-1.32ZM24.65-9.68L24.65-9.68L24.65-9.68Q24.39-9.94 24.39-10.31L24.39-10.31L24.39-10.31Q24.39-10.68 24.65-10.94L24.65-10.94L24.65-10.94Q24.90-11.21 25.27-11.21L25.27-11.21L25.27-11.21Q25.63-11.21 25.89-10.94L25.89-10.94L25.89-10.94Q26.15-10.68 26.15-10.31L26.15-10.31L26.15-10.31Q26.15-9.94 25.89-9.68L25.89-9.68L25.89-9.68Q25.63-9.41 25.27-9.41L25.27-9.41L25.27-9.41Q24.90-9.41 24.65-9.68ZM24.61 0.29L24.54 0.29L24.54-7.69L25.93-8.35L26.00-8.35L26.00-0.37L24.61 0.29ZM29.60 0.29L29.53 0.29L29.53-6.72L27.65-6.72L27.65-6.80L28.24-8.06L29.53-8.06L29.53-10.69L30.92-11.35L31.00-11.35L31.00-8.06L32.88-8.06L32.88-7.98L32.29-6.72L31.00-6.72L31.00-0.37L29.60 0.29ZM35.99-1.32L35.99-1.32L37.53-1.32L37.53-1.32Q38.26-1.32 38.26-2.20L38.26-2.20L38.26-3.20L38.26-3.20Q38.26-4.08 37.53-4.08L37.53-4.08L35.99-4.08L35.99-4.08Q35.26-4.08 35.26-3.20L35.26-3.20L35.26-2.20L35.26-2.20Q35.26-1.32 35.99-1.32ZM37.53 0L35.99 0L35.99 0Q33.79 0 33.79-2.20L33.79-2.20L33.79-3.20L33.79-3.20Q33.79-5.40 35.99-5.40L35.99-5.40L37.53-5.40L37.53-5.40Q37.91-5.40 38.26-5.18L38.26-5.18L38.26-5.86L38.26-5.86Q38.26-6.74 37.53-6.74L37.53-6.74L34.91-6.74L34.91-6.81L35.49-8.06L37.53-8.06L37.53-8.06Q39.73-8.06 39.73-5.86L39.73-5.86L39.73-0.37L38.33 0.29L38.26 0.29L38.26-0.22L38.26-0.22Q37.98 0 37.53 0L37.53 0ZM42.36 0.29L42.29 0.29L42.29-10.69L43.68-11.35L43.75-11.35L43.75-0.37L42.36 0.29ZM52.57 0L46.68 0L46.68-10.69L48.08-11.35L48.15-11.35L48.15-1.33L53.17-1.33L53.17-1.26L52.57 0ZM57.60 0L55.91 0L55.91 0Q53.72 0 53.72-2.20L53.72-2.20L53.72-5.86L53.72-5.86Q53.72-8.06 55.91-8.06L55.91-8.06L57.60-8.06L57.60-8.06Q59.79-8.06 59.79-5.86L59.79-5.86L59.79-5.47L55.20-1.92L55.20-1.92Q55.31-1.32 55.91-1.32L55.91-1.32L57.60-1.32L57.60-1.32Q58.33-1.32 58.33-2.20L58.33-2.20L58.33-2.59L59.72-3.24L59.79-3.24L59.79-2.20L59.79-2.20Q59.79 0 57.60 0L57.60 0ZM55.18-5.86L55.18-3.45L58.32-5.98L58.32-5.98Q58.28-6.74 57.60-6.74L57.60-6.74L55.91-6.74L55.91-6.74Q55.18-6.74 55.18-5.86L55.18-5.86ZM63.82-1.32L63.82-1.32L65.36-1.32L65.36-1.32Q66.09-1.32 66.09-2.20L66.09-2.20L66.09-3.20L66.09-3.20Q66.09-4.08 65.36-4.08L65.36-4.08L63.82-4.08L63.82-4.08Q63.09-4.08 63.09-3.20L63.09-3.20L63.09-2.20L63.09-2.20Q63.09-1.32 63.82-1.32ZM65.36 0L63.82 0L63.82 0Q61.63 0 61.63-2.20L61.63-2.20L61.63-3.20L61.63-3.20Q61.63-5.40 63.82-5.40L63.82-5.40L65.36-5.40L65.36-5.40Q65.74-5.40 66.09-5.18L66.09-5.18L66.09-5.86L66.09-5.86Q66.09-6.74 65.36-6.74L65.36-6.74L62.74-6.74L62.74-6.81L63.33-8.06L65.36-8.06L65.36-8.06Q67.56-8.06 67.56-5.86L67.56-5.86L67.56-0.37L66.17 0.29L66.09 0.29L66.09-0.22L66.09-0.22Q65.82 0 65.36 0L65.36 0ZM74.00 0L72.32 0L72.32 0Q71.82 0 71.59-0.23L71.59-0.23L71.59 2.64L70.20 3.30L70.12 3.30L70.12-5.86L70.12-5.86Q70.12-8.06 72.32-8.06L72.32-8.06L74.00-8.06L74.00-8.06Q76.20-8.06 76.20-5.86L76.20-5.86L76.20-2.20L76.20-2.20Q76.20 0 74.00 0L74.00 0ZM72.32-1.32L72.32-1.32L74.00-1.32L74.00-1.32Q74.74-1.32 74.74-2.20L74.74-2.20L74.74-5.86L74.74-5.86Q74.74-6.74 74.00-6.74L74.00-6.74L72.32-6.74L72.32-6.74Q71.59-6.74 71.59-5.86L71.59-5.86L71.59-2.20L71.59-2.20Q71.59-1.32 72.32-1.32Z" fill="url(#editing-glowing-gradient)"></path></g></g><style>text {
  font-size: 64px;
  font-family: Arial Black;
  dominant-baseline: central;
  text-anchor: middle;
}</style></svg>
