<svg width="205.8875px" height="69.8px" xmlns="http://www.w3.org/2000/svg" viewBox="-5.943749999999994 5.599999999999994 205.8875 69.8" style="background: none;" preserveAspectRatio="xMidYMid"><defs><linearGradient id="editing-glowing-gradient" x1="0.7033683215379001" x2="0.2966316784620999" y1="0.9567727288213005" y2="0.04322727117869951"><stop offset="0" stop-color="#67ff43"></stop><stop offset="1" stop-color="#90ffff"></stop></linearGradient><filter id="editing-glowing" x="-100%" y="-100%" width="300%" height="300%"><feGaussianBlur in="SourceGraphic" result="blur" stdDeviation="10.5"></feGaussianBlur><feMerge><feMergeNode in="blur"></feMergeNode><feMergeNode in="SourceGraphic"></feMergeNode></feMerge></filter></defs><g filter="url(#editing-glowing)"><g transform="translate(66.96497249603271, 113.94500160217285)"><path d="M16.95 0.85L16.95 0.85L16.95 0.85Q11.42 0.85 6.53-0.03L6.53-0.03L6.53-45.77L6.53-45.77Q11.04-46.31 17.00-46.31L17.00-46.31L17.00-46.31Q22.97-46.31 27.81-44.69L27.81-44.69L27.81-44.69Q32.64-43.07 35.89-40.06L35.89-40.06L35.89-40.06Q42.45-34.04 42.45-23.21L42.45-23.21L42.45-23.21Q42.45-11.07 35.14-4.79L35.14-4.79L35.14-4.79Q28.57 0.85 16.95 0.85ZM15.42-37.94L15.42-7.49L15.42-7.49Q17.64-7.08 19.86-7.08L19.86-7.08L19.86-7.08Q22.08-7.08 24.64-7.95L24.64-7.95L24.64-7.95Q27.21-8.82 29.09-10.66L29.09-10.66L29.09-10.66Q33.12-14.56 33.12-22.01L33.12-22.01L33.12-22.01Q33.12-34.25 24.20-37.05L24.20-37.05L24.20-37.05Q21.26-37.97 17.40-37.97L17.40-37.97L16.47-37.97L16.47-37.97Q15.96-37.97 15.42-37.94L15.42-37.94ZM58.24-40.37L50.55-45.90L50.55-45.90Q53.29-50.18 56.26-53.42L56.26-53.42L63.61-47.65L63.61-47.65Q62.14-45.83 60.87-44.09L60.87-44.09L60.87-44.09Q60.87-44.09 58.24-40.37L58.24-40.37ZM59.54-35.72L59.54-3.83L59.54-3.83Q59.54-0.89 59.68 0L59.68 0L51.00 0L51.00-35.72L59.54-35.72ZM78.37-9.50L78.37-9.50L78.37-9.50Q77.11-7.83 77.11-6.85L77.11-6.85L77.11-6.85Q77.11-5.88 77.42-5.35L77.42-5.35L77.42-5.35Q77.72-4.82 78.75-4.34L78.75-4.34L78.75-4.34Q81.01-3.28 86.17-2.48L86.17-2.48L86.17-2.48Q91.33-1.67 94.25-0.48L94.25-0.48L94.25-0.48Q97.17 0.72 98.98 2.46L98.98 2.46L98.98 2.46Q102.37 5.78 102.37 11.86L102.37 11.86L102.37 11.86Q102.37 17.94 98.10 21.21L98.10 21.21L98.10 21.21Q93.82 24.47 85.42 24.47L85.42 24.47L85.42 24.47Q76.94 24.47 71.74 20.78L71.74 20.78L71.74 20.78Q66.55 17.09 66.41 10.97L66.41 10.97L66.41 10.97Q66.21 3.86 71.98 0.68L71.98 0.68L71.98 0.68Q70.41-0.62 69.88-2.38L69.88-2.38L69.88-2.38Q69.35-4.14 69.35-6.39L69.35-6.39L69.35-6.39Q69.35-10.19 72.67-12.82L72.67-12.82L72.67-12.82Q68.80-16.47 68.80-21.91L68.80-21.91L68.80-21.91Q68.80-27.99 73.18-32.09L73.18-32.09L73.18-32.09Q77.79-36.40 85.14-36.40L85.14-36.40L85.14-36.40Q89.00-36.40 92.39-34.97L92.39-34.97L92.39-34.97Q96.83-36.85 98.92-38.26L98.92-38.26L98.92-38.26Q101.00-39.68 101.58-40.33L101.58-40.33L101.79-40.30L101.79-40.30Q102.09-39.48 102.50-37.97L102.50-37.97L103.12-35.51L103.12-35.51Q103.94-32.47 104.11-31.34L104.11-31.34L104.11-31.34Q102.61-29.70 98.81-29.02L98.81-29.02L98.81-29.02Q100.28-26.18 100.28-23.00L100.28-23.00L100.28-23.00Q100.28-19.82 99.19-17.24L99.19-17.24L99.19-17.24Q98.10-14.66 96.08-12.71L96.08-12.71L96.08-12.71Q91.60-8.51 84.66-8.51L84.66-8.51L84.66-8.51Q81.28-8.51 78.37-9.50ZM77.49-24.88L77.49-24.88L77.49-24.88Q77.01-23.65 77.01-22.39L77.01-22.39L77.01-22.39Q77.01-21.12 77.54-19.96L77.54-19.96L77.54-19.96Q78.07-18.80 79.09-17.88L79.09-17.88L79.09-17.88Q81.38-15.83 85.07-15.83L85.07-15.83L85.07-15.83Q87.88-15.83 89.93-17.71L89.93-17.71L89.93-17.71Q92.08-19.76 92.08-22.64L92.08-22.64L92.08-22.64Q92.08-25.53 90.13-27.31L90.13-27.31L90.13-27.31Q88.18-29.09 84.77-29.09L84.77-29.09L84.77-29.09Q79.13-29.09 77.49-24.88ZM85.86 17.23L85.86 17.23L85.86 17.23Q94.27 17.23 94.27 11.35L94.27 11.35L94.27 11.35Q94.27 8.54 91.53 6.84L91.53 6.84L91.53 6.84Q88.46 4.89 80.97 3.79L80.97 3.79L79.19 3.49L79.19 3.49Q76.94 4.68 75.88 6.56L75.88 6.56L75.88 6.56Q74.82 8.44 74.84 10.13L74.84 10.13L74.84 10.13Q74.85 11.83 75.64 13.06L75.64 13.06L75.64 13.06Q76.43 14.29 77.83 15.21L77.83 15.21L77.83 15.21Q80.94 17.23 85.86 17.23ZM116.55-40.37L108.86-45.90L108.86-45.90Q111.60-50.18 114.57-53.42L114.57-53.42L121.92-47.65L121.92-47.65Q120.45-45.83 119.18-44.09L119.18-44.09L119.18-44.09Q119.18-44.09 116.55-40.37L116.55-40.37ZM117.85-35.72L117.85-3.83L117.85-3.83Q117.85-0.89 117.99 0L117.99 0L109.31 0L109.31-35.72L117.85-35.72ZM143.35-7.52L143.35-7.52L143.35-7.52Q147.76-7.52 149.40-9.81L149.40-9.81L149.67-9.81L149.78-1.88L149.78-1.88Q148.10-0.21 143.55 0.34L143.55 0.34L143.55 0.34Q142.32 0.51 140.50 0.51L140.50 0.51L140.50 0.51Q138.67 0.51 136.53-0.17L136.53-0.17L136.53-0.17Q134.39-0.85 132.89-2.39L132.89-2.39L132.89-2.39Q129.78-5.57 129.78-12.34L129.78-12.34L129.78-27.86L124.62-27.86L124.62-27.86Q124.58-28.85 124.58-29.87L124.58-29.87L124.58-35.14L124.58-35.14Q124.58-35.72 124.62-35.72L124.62-35.72L129.78-35.72L129.78-45.46L138.15-45.46L138.15-35.72L147.55-35.72L147.55-27.86L138.15-27.86L138.15-13.91L138.15-13.91Q138.15-8.54 141.13-7.79L141.13-7.79L141.13-7.79Q142.08-7.52 143.35-7.52ZM180.30-2.12L180.30-2.12L180.30-2.12Q175.44 0.51 171.51 0.51L171.51 0.51L171.51 0.51Q167.58 0.51 164.78-0.22L164.78-0.22L164.78-0.22Q161.98-0.96 160.03-2.39L160.03-2.39L160.03-2.39Q156.06-5.30 156.06-10.80L156.06-10.80L156.06-10.80Q156.06-15.72 160.92-19.00L160.92-19.00L160.92-19.00Q166.18-22.56 175.21-22.56L175.21-22.56L176.57-22.52L176.57-22.52Q176.98-22.49 177.50-22.47L177.50-22.47L177.50-22.47Q178.01-22.46 178.42-22.39L178.42-22.39L178.42-22.39Q178.14-27.86 173.70-28.78L173.70-28.78L173.70-28.78Q172.23-29.09 170.57-29.09L170.57-29.09L170.57-29.09Q168.92-29.09 167.33-28.80L167.33-28.80L167.33-28.80Q165.74-28.51 164.23-28.03L164.23-28.03L164.23-28.03Q160.92-26.97 159.48-25.60L159.48-25.60L159.38-25.67L158.35-33.22L158.35-33.22Q164.40-36.40 171.58-36.40L171.58-36.40L171.58-36.40Q182.72-36.40 185.83-28.37L185.83-28.37L185.83-28.37Q186.83-25.81 186.83-22.59L186.83-22.59L186.83-10.22L186.83-10.22Q186.83-6.25 189.63-4.82L189.63-4.82L183.44 0.85L183.44 0.85Q181.49-0.17 180.30-2.12ZM178.45-9.09L178.45-16.24L178.45-16.24Q177.53-16.41 176.54-16.41L176.54-16.41L175.17-16.41L175.17-16.41Q167.62-16.41 165.57-13.06L165.57-13.06L165.57-13.06Q164.95-12.07 164.95-10.97L164.95-10.97L164.95-10.97Q164.95-9.88 165.34-9.04L165.34-9.04L165.34-9.04Q165.74-8.20 166.66-7.66L166.66-7.66L166.66-7.66Q168.44-6.63 171.94-6.63L171.94-6.63L171.94-6.63Q175.44-6.63 178.49-8.31L178.49-8.31L178.49-8.31Q178.45-8.68 178.45-9.09L178.45-9.09ZM205.42-50.93L205.42-3.83L205.42-3.83Q205.42-0.89 205.56 0L205.56 0L196.88 0L196.88-50.93L205.42-50.93ZM225.79 0L222.54 0L222.54 0Q217.52 0 215.88 0.21L215.88 0.21L215.88-45.66L215.88-45.66Q216.70-45.46 219.28-45.46L219.28-45.46L219.28-45.46Q221.86-45.46 225.28-45.60L225.28-45.60L225.28-8.20L232.35-8.20L232.35-8.20Q235.43-8.20 237.28-8.41L237.28-8.41L237.28-8.41Q237.04-0.41 237.04-0.10L237.04-0.10L237.04 0.24L237.04 0.24Q233.69 0 225.79 0L225.79 0ZM242.54-17.57L242.54-17.57L242.54-17.57Q242.54-21.57 243.91-24.99L243.91-24.99L243.91-24.99Q245.27-28.40 247.77-30.97L247.77-30.97L247.77-30.97Q253.10-36.40 261.71-36.40L261.71-36.40L261.71-36.40Q268.99-36.40 273.40-31.58L273.40-31.58L273.40-31.58Q277.74-26.93 277.74-19.89L277.74-19.89L277.74-19.89Q277.74-17.19 277.33-16.20L277.33-16.20L277.33-16.20Q273.92-15.24 263.42-15.24L263.42-15.24L251.39-15.24L251.39-15.24Q252.28-11.59 255.53-9.55L255.53-9.55L255.53-9.55Q258.77-7.52 263.97-7.52L263.97-7.52L263.97-7.52Q269.40-7.52 273.30-9.47L273.30-9.47L273.30-9.47Q274.33-9.98 274.84-10.42L274.84-10.42L274.84-10.42Q274.77-8.99 274.67-7.49L274.67-7.49L274.29-2.15L274.29-2.15Q271.69-0.38 265.88 0.31L265.88 0.31L265.88 0.31Q264.17 0.51 262.60 0.51L262.60 0.51L262.60 0.51Q253.92 0.51 248.25-4.55L248.25-4.55L248.25-4.55Q242.54-9.64 242.54-17.57ZM268.65-21.88L268.65-21.88L268.65-21.88Q267.25-29.22 260.65-29.22L260.65-29.22L260.65-29.22Q255.46-29.22 252.76-24.75L252.76-24.75L252.76-24.75Q251.94-23.38 251.49-21.74L251.49-21.74L251.49-21.74Q252.31-21.70 253.51-21.67L253.51-21.67L256.04-21.67L256.04-21.67Q257.30-21.64 258.47-21.64L258.47-21.64L260.42-21.64L260.42-21.64Q262.16-21.64 263.83-21.67L263.83-21.67L266.64-21.77L266.64-21.77Q267.76-21.81 268.65-21.88ZM308.75-2.12L308.75-2.12L308.75-2.12Q303.89 0.51 299.96 0.51L299.96 0.51L299.96 0.51Q296.03 0.51 293.23-0.22L293.23-0.22L293.23-0.22Q290.42-0.96 288.48-2.39L288.48-2.39L288.48-2.39Q284.51-5.30 284.51-10.80L284.51-10.80L284.51-10.80Q284.51-15.72 289.37-19.00L289.37-19.00L289.37-19.00Q294.63-22.56 303.65-22.56L303.65-22.56L305.02-22.52L305.02-22.52Q305.43-22.49 305.94-22.47L305.94-22.47L305.94-22.47Q306.46-22.46 306.87-22.39L306.87-22.39L306.87-22.39Q306.59-27.86 302.15-28.78L302.15-28.78L302.15-28.78Q300.68-29.09 299.02-29.09L299.02-29.09L299.02-29.09Q297.36-29.09 295.77-28.80L295.77-28.80L295.77-28.80Q294.18-28.51 292.68-28.03L292.68-28.03L292.68-28.03Q289.37-26.97 287.93-25.60L287.93-25.60L287.83-25.67L286.80-33.22L286.80-33.22Q292.85-36.40 300.03-36.40L300.03-36.40L300.03-36.40Q311.17-36.40 314.28-28.37L314.28-28.37L314.28-28.37Q315.27-25.81 315.27-22.59L315.27-22.59L315.27-10.22L315.27-10.22Q315.27-6.25 318.08-4.82L318.08-4.82L311.89 0.85L311.89 0.85Q309.94-0.17 308.75-2.12ZM306.90-9.09L306.90-16.24L306.90-16.24Q305.98-16.41 304.99-16.41L304.99-16.41L303.62-16.41L303.62-16.41Q296.06-16.41 294.01-13.06L294.01-13.06L294.01-13.06Q293.40-12.07 293.40-10.97L293.40-10.97L293.40-10.97Q293.40-9.88 293.79-9.04L293.79-9.04L293.79-9.04Q294.18-8.20 295.11-7.66L295.11-7.66L295.11-7.66Q296.88-6.63 300.39-6.63L300.39-6.63L300.39-6.63Q303.89-6.63 306.93-8.31L306.93-8.31L306.93-8.31Q306.90-8.68 306.90-9.09L306.90-9.09ZM334.82-0.72L334.82-0.72L334.82 9.33L334.82 9.33Q334.82 12.27 334.96 13.16L334.96 13.16L326.45 13.16L326.45-35.72L334.82-35.72L334.82-33.50L334.82-33.50Q338.96-36.40 342.75-36.40L342.75-36.40L342.75-36.40Q346.55-36.40 349.49-35.34L349.49-35.34L349.49-35.34Q352.43-34.28 354.65-32.06L354.65-32.06L354.65-32.06Q359.54-27.24 359.54-18.32L359.54-18.32L359.54-18.32Q359.54-12.41 356.77-7.76L356.77-7.76L356.77-7.76Q354.41-3.83 350.24-1.47L350.24-1.47L350.24-1.47Q346.55 0.62 342.24 0.62L342.24 0.62L342.24 0.62Q337.93 0.62 334.82-0.72ZM334.82-25.81L334.82-9.33L334.82-9.33Q337.42-7.14 341.56-7.14L341.56-7.14L341.56-7.14Q348.33-7.14 350.31-13.67L350.31-13.67L350.31-13.67Q350.99-15.89 350.99-18.44L350.99-18.44L350.99-18.44Q350.99-20.99 350.51-22.51L350.51-22.51L350.51-22.51Q350.03-24.03 349.27-25.14L349.27-25.14L349.27-25.14Q348.50-26.25 347.54-26.98L347.54-26.98L347.54-26.98Q346.58-27.72 345.59-28.16L345.59-28.16L345.59-28.16Q343.85-28.95 342.00-28.95L342.00-28.95L342.00-28.95Q340.16-28.95 338.17-28.10L338.17-28.10L338.17-28.10Q336.19-27.24 334.82-25.81L334.82-25.81Z" fill="url(#editing-glowing-gradient)"></path></g></g><style>text {
  font-size: 64px;
  font-family: Arial Black;
  dominant-baseline: central;
  text-anchor: middle;
}</style></svg>
